<svg xmlns="http://www.w3.org/2000/svg" version="1.1" xmlns:xlink="http://www.w3.org/1999/xlink" width="512" height="512" x="0" y="0" viewBox="0 0 3475 3475" style="enable-background:new 0 0 512 512" xml:space="preserve" fill-rule="evenodd" class=""><g><path d="M2276.23 872.891c358.975 192.983 603.308 572.125 603.308 1007.89 0 631.071-512.345 1143.43-1143.42 1143.43-631.087 0-1143.43-512.362-1143.43-1143.43 0-438.387 247.275-819.441 609.769-1011.35 70.586-37.368 97.554-125.013 60.186-195.598-37.368-70.586-125.012-97.554-195.598-60.186-454.14 240.421-763.773 717.908-763.773 1267.13 0 790.804 642.028 1432.85 1432.85 1432.85 790.804 0 1432.83-642.046 1432.83-1432.85 0-545.94-305.95-1021.03-755.683-1262.81-70.346-37.818-158.161-11.409-195.979 58.937-37.817 70.345-11.408 158.16 58.937 195.978zM1586.501 303.3v940.379c0 79.867 64.842 144.709 144.708 144.709 79.867-.001 144.709-64.842 144.709-144.709V303.3c0-79.867-64.842-144.708-144.709-144.708-79.866 0-144.708 64.841-144.708 144.708z" fill="#000000" opacity="1" data-original="#000000" class=""></path></g></svg>