<?xml version="1.0" standalone="no"?>
<!DOCTYPE svg PUBLIC "-//W3C//DTD SVG 20010904//EN"
 "http://www.w3.org/TR/2001/REC-SVG-20010904/DTD/svg10.dtd">
<svg version="1.0" xmlns="http://www.w3.org/2000/svg"
 width="50.000000pt" height="50.000000pt" viewBox="0 0 50.000000 50.000000"
 preserveAspectRatio="xMidYMid meet">

<g transform="translate(0.000000,50.000000) scale(0.100000,-0.100000)"
fill="#000000" stroke="none">
<path d="M52 417 c-28 -30 -28 -68 1 -95 30 -28 68 -28 95 1 28 30 28 68 -1
95 -30 28 -68 28 -95 -1z m58 -47 c0 -16 -4 -30 -9 -30 -10 0 -21 47 -13 55
13 13 22 3 22 -25z"/>
<path d="M360 420 c0 -15 7 -20 27 -20 l27 0 -29 -30 c-27 -28 -30 -29 -47
-13 -18 16 -21 14 -73 -37 -53 -53 -55 -53 -75 -35 -19 18 -21 18 -42 -1 -64
-53 -96 -88 -91 -100 8 -22 20 -17 68 27 44 41 46 41 65 24 20 -18 22 -18 75
35 54 53 55 53 75 35 20 -18 21 -18 60 20 36 35 40 37 40 17 0 -15 6 -22 20
-22 18 0 20 7 20 60 l0 60 -60 0 c-53 0 -60 -2 -60 -20z"/>
<path d="M420 165 c0 -98 1 -105 20 -105 19 0 20 7 20 105 0 98 -1 105 -20
105 -19 0 -20 -7 -20 -105z"/>
<path d="M280 150 c0 -83 1 -90 20 -90 19 0 20 7 20 90 0 83 -1 90 -20 90 -19
0 -20 -7 -20 -90z"/>
<path d="M350 150 c0 -83 1 -90 20 -90 19 0 20 7 20 90 0 83 -1 90 -20 90 -19
0 -20 -7 -20 -90z"/>
<path d="M140 125 c0 -58 2 -65 20 -65 18 0 20 7 20 65 0 58 -2 65 -20 65 -18
0 -20 -7 -20 -65z"/>
<path d="M210 120 c0 -53 2 -60 20 -60 18 0 20 7 20 60 0 53 -2 60 -20 60 -18
0 -20 -7 -20 -60z"/>
<path d="M70 100 c0 -33 3 -40 20 -40 17 0 20 7 20 40 0 33 -3 40 -20 40 -17
0 -20 -7 -20 -40z"/>
</g>
</svg>
