<svg xmlns="http://www.w3.org/2000/svg" version="1.1" xmlns:xlink="http://www.w3.org/1999/xlink" width="512" height="512" x="0" y="0" viewBox="0 0 512.001 512.001" style="enable-background:new 0 0 512 512" xml:space="preserve" class=""><g><path d="M505.947 123.597a23.096 23.096 0 0 0-16.99-7.477h-6.837c-17.929 0-32.631 13.468-34.198 31.328l-7.397 84.279c-.655 7.469-6.804 13.102-14.303 13.102h-64.026c-20.516 0-37.207 16.691-37.207 37.207v3.697c0 12.395 10.083 22.478 22.478 22.478h13.723l-13.514 44.135-.03.099-10.33 33.736a7.5 7.5 0 0 0 14.342 4.392l8.712-28.451h102.87l8.712 28.451a7.501 7.501 0 0 0 7.168 5.306 7.5 7.5 0 0 0 7.174-9.698l-24.517-80.066a54.99 54.99 0 0 0 12.362-5.188 7.5 7.5 0 1 0-7.461-13.012 40.147 40.147 0 0 1-19.94 5.297h-99.269c-4.123 0-7.478-3.354-7.478-7.478v-3.697c0-12.245 9.962-22.207 22.207-22.207h64.026c15.333 0 27.906-11.518 29.246-26.791l7.396-84.28c.882-10.056 9.16-17.64 19.255-17.64h6.837c2.282 0 4.389.927 5.93 2.61a7.953 7.953 0 0 1 2.082 6.136l-10.242 116.711a40.336 40.336 0 0 1-1.666 8.464 7.5 7.5 0 0 0 4.931 9.391 7.5 7.5 0 0 0 9.392-4.93 55.507 55.507 0 0 0 2.287-11.614l10.242-116.711a23.115 23.115 0 0 0-5.967-17.579zM376.875 308.212h69.855l11.914 38.91H364.96l11.915-38.91zM149.803 244.83H85.777c-7.499 0-13.647-5.632-14.303-13.102l-7.396-84.279c-1.567-17.86-16.269-31.328-34.198-31.328h-6.837a23.096 23.096 0 0 0-16.99 7.477 23.107 23.107 0 0 0-5.965 17.581L10.33 257.89a55.016 55.016 0 0 0 17.684 35.841 55.037 55.037 0 0 0 22.206 12.397l-24.514 80.055a7.5 7.5 0 0 0 14.342 4.392l8.712-28.451h102.87l8.712 28.451a7.501 7.501 0 0 0 7.168 5.306 7.5 7.5 0 0 0 7.174-9.698l-10.33-33.736-.03-.099-13.514-44.135h13.723c12.395 0 22.477-10.083 22.477-22.478v-3.697c0-20.517-16.691-37.208-37.207-37.208zm-96.45 102.292 11.914-38.91h69.855l11.914 38.91H53.353zm118.657-61.388c0 4.124-3.354 7.478-7.477 7.478h-99.27a41.11 41.11 0 0 1-4.736-.283h-.005c-18.764-2.169-33.558-17.065-35.25-36.352L15.03 139.867a7.954 7.954 0 0 1 2.082-6.137 7.952 7.952 0 0 1 5.93-2.61h6.837c10.095 0 18.373 7.583 19.255 17.64l7.396 84.279v-.001c1.34 15.273 13.913 26.791 29.246 26.791h64.026c12.245 0 22.207 9.962 22.207 22.207v3.698z" fill="#000000" opacity="1" data-original="#000000"></path><path d="M312.948 371.141c-3.095-11.897-13.841-20.206-26.134-20.206h-4.642V214.401h92.354a17.56 17.56 0 0 0 13.661-6.488 17.56 17.56 0 0 0 3.605-14.69c-3.226-15.684-17.188-27.067-33.199-27.067H202.665c-4.143 0-7.5 3.358-7.5 7.5s3.357 7.5 7.5 7.5h155.928c8.926 0 16.708 6.346 18.506 15.088a2.594 2.594 0 0 1-.537 2.191 2.592 2.592 0 0 1-2.036.967H137.472a2.592 2.592 0 0 1-2.036-.967 2.592 2.592 0 0 1-.537-2.19c1.798-8.743 9.58-15.089 18.506-15.089h14.084c4.143 0 7.5-3.358 7.5-7.5s-3.357-7.5-7.5-7.5h-14.084c-16.012 0-29.974 11.383-33.199 27.068a17.56 17.56 0 0 0 3.605 14.689 17.56 17.56 0 0 0 13.661 6.488h92.355v136.535h-4.642c-12.293 0-23.039 8.309-26.134 20.205l-1.761 6.767a14.263 14.263 0 0 0 2.536 12.396 14.263 14.263 0 0 0 11.358 5.576h89.63c4.479 0 8.618-2.032 11.358-5.576a14.263 14.263 0 0 0 2.536-12.396l-1.76-6.767zm-68.121-156.74h22.346v136.535h-22.346V214.401zm-32.811 166.478 1.552-5.962a12.004 12.004 0 0 1 11.616-8.981h61.629a12.004 12.004 0 0 1 11.616 8.981l1.552 5.962h-87.965z" fill="#000000" opacity="1" data-original="#000000"></path></g></svg>